<!DOCTYPE svg PUBLIC "-//W3C//DTD SVG 1.1//EN" "http://www.w3.org/Graphics/SVG/1.1/DTD/svg11.dtd"> <svg width="521px" height="521px" version="1.1" baseProfile="full" xmlns="http://www.w3.org/2000/svg" xmlns:xlink="http://www.w3.org/1999/xlink" xmlns:ev="http://www.w3.org/2001/xml-events"><polygon fill="rgb(228,118,27)" stroke="rgb(228,118,27)" points="459.9453582763672,315.6541223227978 434.47511291503906,406.5714205503464 342.05149841308594,379.1052514910698"></polygon><polygon fill="rgb(246,133,27)" stroke="rgb(246,133,27)" points="201.72546768188477,86.88567441701889 310.4677543640137,86.95813369750977 286.31006813049316,151.0530345439911"></polygon><polygon fill="rgb(228,118,27)" stroke="rgb(228,118,27)" points="170.48883819580078,379.2072675228119 77.48953247070312,406.82612133026123 52.00401306152344,315.7850240468979"></polygon><polygon fill="rgb(246,133,27)" stroke="rgb(246,133,27)" points="286.31006813049316,151.0530345439911 226.23089027404785,151.0296228826046 201.72546768188477,86.88567441701889"></polygon><polygon fill="rgb(118,61,22)" stroke="rgb(118,61,22)" points="431.0172576904297,226.9183969721198 346.1979293823242,202.4439913034439 375.6156768798828,195.17483632266521"></polygon><polygon fill="rgb(118,61,22)" stroke="rgb(118,61,22)" points="375.6156768798828,195.17483632266521 448.2765197753906,163.52804952859879 444.14784240722656,179.75745806097984"></polygon><polygon fill="rgb(118,61,22)" stroke="rgb(118,61,22)" points="441.2719268798828,199.23732130229473 375.6156768798828,195.17483632266521 444.14784240722656,179.75745806097984"></polygon><polygon fill="rgb(118,61,22)" stroke="rgb(118,61,22)" points="441.2719268798828,199.23732130229473 431.0172576904297,226.9183969721198 375.6156768798828,195.17483632266521"></polygon><polygon fill="rgb(118,61,22)" stroke="rgb(118,61,22)" points="81.14060974121094,226.8965837880969 136.5308074951172,195.12716852128506 166.1161117553711,202.4137408733368"></polygon><polygon fill="rgb(118,61,22)" stroke="rgb(118,61,22)" points="136.5308074951172,195.12716852128506 67.96951293945312,179.65738734602928 63.82655334472656,163.39882922172546"></polygon><polygon fill="rgb(118,61,22)" stroke="rgb(118,61,22)" points="70.86064147949219,199.16994774341583 67.96951293945312,179.65738734602928 136.5308074951172,195.12716852128506"></polygon><polygon fill="rgb(118,61,22)" stroke="rgb(118,61,22)" points="70.86064147949219,199.16994774341583 136.5308074951172,195.12716852128506 81.14060974121094,226.8965837880969"></polygon><polygon fill="rgb(118,61,22)" stroke="rgb(118,61,22)" points="448.2765197753906,163.52804952859879 375.6156768798828,195.17483632266521 374.04527282714844,110.94447785615921"></polygon><polygon fill="rgb(118,61,22)" stroke="rgb(118,61,22)" points="374.04527282714844,110.94447785615921 375.6156768798828,195.17483632266521 346.1979293823242,202.4439913034439"></polygon><polygon fill="rgb(118,61,22)" stroke="rgb(118,61,22)" points="166.1161117553711,202.4137408733368 136.5308074951172,195.12716852128506 138.3548355102539,110.81177407503128"></polygon><polygon fill="rgb(118,61,22)" stroke="rgb(118,61,22)" points="138.3548355102539,110.81177407503128 136.5308074951172,195.12716852128506 63.82655334472656,163.39882922172546"></polygon><polygon fill="rgb(226,118,27)" stroke="rgb(226,118,27)" points="440.7049102783203,35.99875074625015 286.31006813049316,151.0530345439911 310.4677543640137,86.95813369750977"></polygon><polygon fill="rgb(228,118,27)" stroke="rgb(228,118,27)" points="226.23089027404785,151.0296228826046 71.73707580566406,35.67153036594391 201.72546768188477,86.88567441701889"></polygon><polygon fill="rgb(246,133,27)" stroke="rgb(246,133,27)" points="372.07322692871094,239.10511864721775 431.0172576904297,226.9183969721198 459.9453582763672,315.6541223227978"></polygon><polygon fill="rgb(246,133,27)" stroke="rgb(246,133,27)" points="372.07322692871094,239.10511864721775 459.9453582763672,315.6541223227978 384.7969512939453,313.03303791582584"></polygon><polygon fill="rgb(228,118,27)" stroke="rgb(228,118,27)" points="342.05149841308594,379.1052514910698 384.7969512939453,313.03303791582584 459.9453582763672,315.6541223227978"></polygon><polygon fill="rgb(246,133,27)" stroke="rgb(246,133,27)" points="140.57915496826172,239.10286890342832 52.00401306152344,315.7850240468979 81.14060974121094,226.8965837880969"></polygon><polygon fill="rgb(228,118,27)" stroke="rgb(228,118,27)" points="52.00401306152344,315.7850240468979 127.84442138671875,313.1125583946705 170.48883819580078,379.2072675228119"></polygon><polygon fill="rgb(246,133,27)" stroke="rgb(246,133,27)" points="127.84442138671875,313.1125583946705 52.00401306152344,315.7850240468979 140.57915496826172,239.10286890342832"></polygon><polygon fill="rgb(118,61,22)" stroke="rgb(118,61,22)" points="346.1979293823242,202.4439913034439 286.31006813049316,151.0530345439911 374.04527282714844,110.94447785615921"></polygon><polygon fill="rgb(118,61,22)" stroke="rgb(118,61,22)" points="138.3548355102539,110.81177407503128 226.23089027404785,151.0296228826046 166.1161117553711,202.4137408733368"></polygon><polygon fill="rgb(118,61,22)" stroke="rgb(118,61,22)" points="431.0172576904297,226.9183969721198 441.2719268798828,199.23732130229473 449.33921813964844,205.00984153151512"></polygon><polygon fill="rgb(118,61,22)" stroke="rgb(118,61,22)" points="457.00665283203125,169.83559596538544 444.14784240722656,179.75745806097984 448.2765197753906,163.52804952859879"></polygon><polygon fill="rgb(118,61,22)" stroke="rgb(118,61,22)" points="441.2719268798828,199.23732130229473 444.14784240722656,179.75745806097984 454.01573181152344,187.35012751817703"></polygon><polygon fill="rgb(118,61,22)" stroke="rgb(118,61,22)" points="81.14060974121094,226.8965837880969 62.79048156738281,204.94916348159313 70.86064147949219,199.16994774341583"></polygon><polygon fill="rgb(118,61,22)" stroke="rgb(118,61,22)" points="55.09223937988281,169.71144253015518 63.82655334472656,163.39882922172546 67.96951293945312,179.65738734602928"></polygon><polygon fill="rgb(118,61,22)" stroke="rgb(118,61,22)" points="70.86064147949219,199.16994774341583 58.09782409667969,187.25778529047966 67.96951293945312,179.65738734602928"></polygon><polygon fill="rgb(118,61,22)" stroke="rgb(118,61,22)" points="374.04527282714844,110.94447785615921 461.3260040283203,97.38014578819275 448.2765197753906,163.52804952859879"></polygon><polygon fill="rgb(118,61,22)" stroke="rgb(118,61,22)" points="63.82655334472656,163.39882922172546 50.87019348144531,97.1249172091484 138.3548355102539,110.81177407503128"></polygon><polygon fill="rgb(246,133,27)" stroke="rgb(246,133,27)" points="431.0172576904297,226.9183969721198 372.07322692871094,239.10511864721775 346.1979293823242,202.4439913034439"></polygon><polygon fill="rgb(246,133,27)" stroke="rgb(246,133,27)" points="81.14060974121094,226.8965837880969 166.1161117553711,202.4137408733368 140.57915496826172,239.10286890342832"></polygon><polygon fill="rgb(228,118,27)" stroke="rgb(228,118,27)" points="281.1836395263672,242.2562849149108 286.31006813049316,151.0530345439911 346.1979293823242,202.4439913034439"></polygon><polygon fill="rgb(228,118,27)" stroke="rgb(228,118,27)" points="346.1979293823242,202.4439913034439 372.07322692871094,239.10511864721775 281.1836395263672,242.2562849149108"></polygon><polygon fill="rgb(228,118,27)" stroke="rgb(228,118,27)" points="166.1161117553711,202.4137408733368 226.23089027404785,151.0296228826046 231.72954940795898,242.25647718459368"></polygon><polygon fill="rgb(228,118,27)" stroke="rgb(228,118,27)" points="231.72954940795898,242.25647718459368 140.57915496826172,239.10286890342832 166.1161117553711,202.4137408733368"></polygon><polygon fill="rgb(118,61,22)" stroke="rgb(118,61,22)" points="440.7049102783203,35.99875074625015 461.3260040283203,97.38014578819275 374.04527282714844,110.94447785615921"></polygon><polygon fill="rgb(118,61,22)" stroke="rgb(118,61,22)" points="374.04527282714844,110.94447785615921 286.31006813049316,151.0530345439911 440.7049102783203,35.99875074625015"></polygon><polygon fill="rgb(118,61,22)" stroke="rgb(118,61,22)" points="138.3548355102539,110.81177407503128 50.87019348144531,97.1249172091484 71.73707580566406,35.67153036594391"></polygon><polygon fill="rgb(118,61,22)" stroke="rgb(118,61,22)" points="71.73707580566406,35.67153036594391 226.23089027404785,151.0296228826046 138.3548355102539,110.81177407503128"></polygon><polygon fill="rgb(246,133,27)" stroke="rgb(246,133,27)" points="226.23089027404785,151.0296228826046 286.31006813049316,151.0530345439911 281.1836395263672,242.2562849149108"></polygon><polygon fill="rgb(246,133,27)" stroke="rgb(246,133,27)" points="281.1836395263672,242.2562849149108 231.72954940795898,242.25647718459368 226.23089027404785,151.0296228826046"></polygon><polygon fill="rgb(205,97,22)" stroke="rgb(205,97,22)" points="342.05149841308594,379.1052514910698 334.2899932861328,312.99135686457157 384.7969512939453,313.03303791582584"></polygon><polygon fill="rgb(205,97,22)" stroke="rgb(205,97,22)" points="170.48883819580078,379.2072675228119 127.84442138671875,313.1125583946705 178.57709503173828,313.03950722515583"></polygon><polygon fill="rgb(192,173,158)" stroke="rgb(192,173,158)" points="291.1079216003418,398.7012569308281 342.05149841308594,379.1052514910698 324.27867126464844,392.70790177583694"></polygon><polygon fill="rgb(192,173,158)" stroke="rgb(192,173,158)" points="188.49651336669922,392.79660218954086 170.48883819580078,379.2072675228119 222.42000198364258,398.74791437387466"></polygon><polygon fill="rgb(228,117,31)" stroke="rgb(228,117,31)" points="372.07322692871094,239.10511864721775 334.2899932861328,312.99135686457157 335.48921966552734,275.97503390163183"></polygon><polygon fill="rgb(246,133,27)" stroke="rgb(246,133,27)" points="384.7969512939453,313.03303791582584 334.2899932861328,312.99135686457157 372.07322692871094,239.10511864721775"></polygon><polygon fill="rgb(205,97,22)" stroke="rgb(205,97,22)" points="281.1836395263672,242.2562849149108 372.07322692871094,239.10511864721775 335.48921966552734,275.97503390163183"></polygon><polygon fill="rgb(246,133,27)" stroke="rgb(246,133,27)" points="140.57915496826172,239.10286890342832 178.57709503173828,313.03950722515583 127.84442138671875,313.1125583946705"></polygon><polygon fill="rgb(228,117,31)" stroke="rgb(228,117,31)" points="140.57915496826172,239.10286890342832 177.3287811279297,275.99866799265146 178.57709503173828,313.03950722515583"></polygon><polygon fill="rgb(205,97,22)" stroke="rgb(205,97,22)" points="177.3287811279297,275.99866799265146 140.57915496826172,239.10286890342832 231.72954940795898,242.25647718459368"></polygon><polygon fill="rgb(215,193,179)" stroke="rgb(215,193,179)" points="291.6099662780762,382.36573815345764 342.05149841308594,379.1052514910698 291.1079216003418,398.7012569308281"></polygon><polygon fill="rgb(215,193,179)" stroke="rgb(215,193,179)" points="222.10891342163086,382.40803748369217 222.42000198364258,398.74791437387466 170.48883819580078,379.2072675228119"></polygon><polygon fill="rgb(228,118,27)" stroke="rgb(228,118,27)" points="287.27494049072266,345.8766393959522 334.2899932861328,312.99135686457157 342.05149841308594,379.1052514910698"></polygon><polygon fill="rgb(215,193,179)" stroke="rgb(215,193,179)" points="342.05149841308594,379.1052514910698 291.6099662780762,382.36573815345764 287.27494049072266,345.8766393959522"></polygon><polygon fill="rgb(228,118,27)" stroke="rgb(228,118,27)" points="226.47819709777832,345.9040623307228 170.48883819580078,379.2072675228119 178.57709503173828,313.03950722515583"></polygon><polygon fill="rgb(215,193,179)" stroke="rgb(215,193,179)" points="170.48883819580078,379.2072675228119 226.47819709777832,345.9040623307228 222.10891342163086,382.40803748369217"></polygon><polygon fill="rgb(205,97,22)" stroke="rgb(205,97,22)" points="335.48921966552734,275.97503390163183 303.07884979248047,261.1114111766219 281.1836395263672,242.2562849149108"></polygon><polygon fill="rgb(205,97,22)" stroke="rgb(205,97,22)" points="231.72954940795898,242.25647718459368 209.7938232421875,261.1193649210036 177.3287811279297,275.99866799265146"></polygon><polygon fill="rgb(246,133,27)" stroke="rgb(246,133,27)" points="334.2899932861328,312.99135686457157 289.66510009765625,288.97813642024994 335.48921966552734,275.97503390163183"></polygon><polygon fill="rgb(35,52,71)" stroke="rgb(35,52,71)" points="289.66510009765625,288.97813642024994 303.07884979248047,261.1114111766219 335.48921966552734,275.97503390163183"></polygon><polygon fill="rgb(246,133,27)" stroke="rgb(246,133,27)" points="178.57709503173828,313.03950722515583 177.3287811279297,275.99866799265146 223.30834579467773,288.9917762577534"></polygon><polygon fill="rgb(35,52,71)" stroke="rgb(35,52,71)" points="223.30834579467773,288.9917762577534 177.3287811279297,275.99866799265146 209.7938232421875,261.1193649210036"></polygon><polygon fill="rgb(205,97,22)" stroke="rgb(205,97,22)" points="303.07884979248047,261.1114111766219 289.66510009765625,288.97813642024994 281.1836395263672,242.2562849149108"></polygon><polygon fill="rgb(205,97,22)" stroke="rgb(205,97,22)" points="209.7938232421875,261.1193649210036 231.72954940795898,242.25647718459368 223.30834579467773,288.9917762577534"></polygon><polygon fill="rgb(226,118,27)" stroke="rgb(226,118,27)" points="289.66510009765625,288.97813642024994 279.2112464904785,271.0637649819255 281.1836395263672,242.2562849149108"></polygon><polygon fill="rgb(246,133,27)" stroke="rgb(246,133,27)" points="233.84831047058105,271.0695820823312 231.72954940795898,242.25647718459368 281.1836395263672,242.2562849149108"></polygon><polygon fill="rgb(246,133,27)" stroke="rgb(246,133,27)" points="281.1836395263672,242.2562849149108 279.2112464904785,271.0637649819255 233.84831047058105,271.0695820823312"></polygon><polygon fill="rgb(228,117,31)" stroke="rgb(228,117,31)" points="223.30834579467773,288.9917762577534 231.72954940795898,242.25647718459368 233.84831047058105,271.0695820823312"></polygon><polygon fill="rgb(192,173,158)" stroke="rgb(192,173,158)" points="324.27867126464844,392.70790177583694 288.07915115356445,414.2081763148308 291.1079216003418,398.7012569308281"></polygon><polygon fill="rgb(192,173,158)" stroke="rgb(192,173,158)" points="222.42000198364258,398.74791437387466 225.49167442321777,414.25487899780273 188.49651336669922,392.79660218954086"></polygon><polygon fill="rgb(246,133,27)" stroke="rgb(246,133,27)" points="289.66510009765625,288.97813642024994 334.2899932861328,312.99135686457157 287.27494049072266,345.8766393959522"></polygon><polygon fill="rgb(246,133,27)" stroke="rgb(246,133,27)" points="226.47819709777832,345.9040623307228 178.57709503173828,313.03950722515583 223.30834579467773,288.9917762577534"></polygon><polygon fill="rgb(246,133,27)" stroke="rgb(246,133,27)" points="287.27494049072266,345.8766393959522 279.4443988800049,340.45099252462387 289.66510009765625,288.97813642024994"></polygon><polygon fill="rgb(228,117,31)" stroke="rgb(228,117,31)" points="279.2112464904785,271.0637649819255 289.66510009765625,288.97813642024994 279.4443988800049,340.45099252462387"></polygon><polygon fill="rgb(228,117,31)" stroke="rgb(228,117,31)" points="233.84831047058105,271.0695820823312 234.31261825561523,340.47029489278793 223.30834579467773,288.9917762577534"></polygon><polygon fill="rgb(246,133,27)" stroke="rgb(246,133,27)" points="223.30834579467773,288.9917762577534 234.31261825561523,340.47029489278793 226.47819709777832,345.9040623307228"></polygon><polygon fill="rgb(246,133,27)" stroke="rgb(246,133,27)" points="233.84831047058105,271.0695820823312 279.2112464904785,271.0637649819255 279.4443988800049,340.45099252462387"></polygon><polygon fill="rgb(246,133,27)" stroke="rgb(246,133,27)" points="279.4443988800049,340.45099252462387 234.31261825561523,340.47029489278793 233.84831047058105,271.0695820823312"></polygon><polygon fill="rgb(192,173,158)" stroke="rgb(192,173,158)" points="291.6099662780762,382.36573815345764 291.1079216003418,398.7012569308281 288.07915115356445,414.2081763148308"></polygon><polygon fill="rgb(192,173,158)" stroke="rgb(192,173,158)" points="225.49167442321777,414.25487899780273 222.42000198364258,398.74791437387466 222.10891342163086,382.40803748369217"></polygon><polygon fill="rgb(192,173,158)" stroke="rgb(192,173,158)" points="287.6356716156006,378.178994178772 288.07915115356445,414.2081763148308 225.49167442321777,414.25487899780273"></polygon><polygon fill="rgb(192,173,158)" stroke="rgb(192,173,158)" points="288.07915115356445,414.2081763148308 287.6356716156006,378.178994178772 291.6099662780762,382.36573815345764"></polygon><polygon fill="rgb(192,173,158)" stroke="rgb(192,173,158)" points="225.49167442321777,414.25487899780273 226.17523574829102,378.2152841389179 287.6356716156006,378.178994178772"></polygon><polygon fill="rgb(192,173,158)" stroke="rgb(192,173,158)" points="222.10891342163086,382.40803748369217 226.17523574829102,378.2152841389179 225.49167442321777,414.25487899780273"></polygon><polygon fill="rgb(22,22,22)" stroke="rgb(22,22,22)" points="287.27494049072266,345.8766393959522 291.6099662780762,382.36573815345764 287.6356716156006,378.178994178772"></polygon><polygon fill="rgb(22,22,22)" stroke="rgb(22,22,22)" points="226.17523574829102,378.2152841389179 222.10891342163086,382.40803748369217 226.47819709777832,345.9040623307228"></polygon><polygon fill="rgb(22,22,22)" stroke="rgb(22,22,22)" points="287.6356716156006,378.178994178772 284.9542007446289,352.5724047124386 287.27494049072266,345.8766393959522"></polygon><polygon fill="rgb(22,22,22)" stroke="rgb(22,22,22)" points="287.27494049072266,345.8766393959522 284.9542007446289,352.5724047124386 279.9511070251465,346.9508011043072"></polygon><polygon fill="rgb(22,22,22)" stroke="rgb(22,22,22)" points="279.9511070251465,346.9508011043072 279.4443988800049,340.45099252462387 287.27494049072266,345.8766393959522"></polygon><polygon fill="rgb(22,22,22)" stroke="rgb(22,22,22)" points="279.4443988800049,340.45099252462387 279.9511070251465,346.9508011043072 233.9859218597412,346.9717471897602"></polygon><polygon fill="rgb(22,22,22)" stroke="rgb(22,22,22)" points="233.9859218597412,346.9717471897602 234.31261825561523,340.47029489278793 279.4443988800049,340.45099252462387"></polygon><polygon fill="rgb(22,22,22)" stroke="rgb(22,22,22)" points="226.47819709777832,345.9040623307228 228.98028373718262,352.5992696881294 226.17523574829102,378.2152841389179"></polygon><polygon fill="rgb(22,22,22)" stroke="rgb(22,22,22)" points="226.47819709777832,345.9040623307228 234.31261825561523,340.47029489278793 233.9859218597412,346.9717471897602"></polygon><polygon fill="rgb(22,22,22)" stroke="rgb(22,22,22)" points="233.9859218597412,346.9717471897602 228.98028373718262,352.5992696881294 226.47819709777832,345.9040623307228"></polygon><polygon fill="rgb(22,22,22)" stroke="rgb(22,22,22)" points="228.98028373718262,352.5992696881294 284.9542007446289,352.5724047124386 287.6356716156006,378.178994178772"></polygon><polygon fill="rgb(22,22,22)" stroke="rgb(22,22,22)" points="287.6356716156006,378.178994178772 226.17523574829102,378.2152841389179 228.98028373718262,352.5992696881294"></polygon><polygon fill="rgb(22,22,22)" stroke="rgb(22,22,22)" points="279.9511070251465,346.9508011043072 284.9542007446289,352.5724047124386 228.98028373718262,352.5992696881294"></polygon><polygon fill="rgb(22,22,22)" stroke="rgb(22,22,22)" points="228.98028373718262,352.5992696881294 233.9859218597412,346.9717471897602 279.9511070251465,346.9508011043072"></polygon></svg>
